<svg width="110" height="26" xmlns="http://www.w3.org/2000/svg"><path d="M5.5 1.052l3.96 9.432 3.924-9.432h4.932L11.476 17H7.408L.568 1.052H5.5zm24.209 10.404l4.031 1.584c-1.872 3.06-4.356 4.536-7.56 4.536-4.788 0-8.387-3.672-8.387-8.532 0-4.788 3.6-8.568 8.172-8.568 4.643 0 8.027 3.744 8.027 8.892 0 .288 0 .576-.035 1.26H22.508c.611 1.944 1.764 2.88 3.636 2.88 1.547 0 2.7-.684 3.564-2.052zm-7.2-4.032h6.912c-.648-2.016-1.729-2.916-3.456-2.916-1.764 0-2.916.972-3.456 2.916zm25.108 9.9V16.1c-1.548 1.116-2.592 1.476-4.14 1.476-4.536 0-8.208-3.816-8.208-8.568 0-4.716 3.636-8.532 8.208-8.532 1.548 0 2.592.36 4.14 1.476v-.9h4.608v16.272c0 5.112-3.528 8.64-8.676 8.64-2.484 0-4.68-.828-6.444-2.448-.432-.432-.828-.828-1.656-1.8l3.096-2.952c.18.216.324.396.396.468.108.144.216.252.324.36 1.296 1.548 2.592 2.196 4.248 2.196 2.628 0 4.104-1.62 4.104-4.464zM43.801 4.616c-2.268 0-3.888 1.8-3.888 4.356 0 2.664 1.584 4.464 3.888 4.464s3.852-1.8 3.852-4.428-1.548-4.392-3.852-4.392zM63.185.476c4.68 0 8.46 3.816 8.46 8.532 0 4.824-3.743 8.568-8.567 8.568-4.86 0-8.605-3.744-8.605-8.64 0-4.788 3.78-8.46 8.712-8.46zm-.18 4.176c-2.268 0-3.888 1.8-3.888 4.32 0 2.664 1.585 4.428 3.96 4.428 2.34 0 3.924-1.764 3.924-4.392s-1.584-4.356-3.996-4.356zM85.27 17.324V16.1c-1.548 1.116-2.592 1.476-4.14 1.476-4.536 0-8.208-3.816-8.208-8.568 0-4.716 3.636-8.532 8.208-8.532 1.548 0 2.592.36 4.14 1.476v-.9h4.608v16.272c0 5.112-3.528 8.64-8.676 8.64-2.484 0-4.68-.828-6.444-2.448a25.777 25.777 0 0 1-1.656-1.8l3.096-2.952c.18.216.324.396.396.468.108.144.216.252.324.36 1.296 1.548 2.592 2.196 4.248 2.196 2.628 0 4.104-1.62 4.104-4.464zM81.454 4.616c-2.268 0-3.888 1.8-3.888 4.356 0 2.664 1.584 4.464 3.888 4.464s3.852-1.8 3.852-4.428-1.548-4.392-3.852-4.392zm19.385-4.14c4.68 0 8.46 3.816 8.46 8.532 0 4.824-3.745 8.568-8.569 8.568-4.86 0-8.604-3.744-8.604-8.64 0-4.788 3.78-8.46 8.712-8.46zm-.18 4.176c-2.269 0-3.889 1.8-3.889 4.32 0 2.664 1.585 4.428 3.96 4.428 2.34 0 3.924-1.764 3.924-4.392s-1.584-4.356-3.995-4.356z" fill="#000" fill-rule="evenodd"/></svg>