<svg width="249" height="79" xmlns="http://www.w3.org/2000/svg"><path d="M18.615 29.04V7.008h-4.59V3.2l2.04-2.04h13.26v3.808l-2.04 2.04h-2.55V27l-2.04 2.04h-4.08zm2.72-2.72h2.72V4.288h4.59V1.84h-11.9v2.448h4.59V26.32zm12.555 2.72V3.2l2.04-2.04h4.08v11.016h1.02V3.2l2.04-2.04h4.08V27l-2.04 2.04h-4.08V18.024h-1.02V27l-2.04 2.04h-4.08zm2.72-2.72h2.72V15.304h4.42V26.32h2.72V1.84h-2.72v11.016h-4.42V1.84h-2.72v24.48zm16.974 2.72V3.2l2.04-2.04h10.54v3.808l-2.04 2.04h-4.42v5.168h5.1v3.808l-2.04 2.04h-3.06v5.168h6.46V27l-2.04 2.04h-10.54zm2.72-2.72h9.18v-2.448h-6.46v-8.568h5.1v-2.448h-5.1V4.288h6.46V1.84h-9.18v24.48zm24.94 2.72V3.2l2.04-2.04h3.366l2.414 6.868V3.2l2.04-2.04h4.08V27l-2.04 2.04h-3.4l-2.38-6.766V27l-2.04 2.04h-4.08zm2.72-2.72h2.72V10.646L92.26 26.32h2.244V1.84h-2.72v15.742L86.174 1.84h-2.21v24.48zm17.655 2.72V3.2l2.04-2.04h10.54v3.808l-2.04 2.04h-4.42v5.168h5.1v3.808l-2.04 2.04h-3.06v5.168h6.46V27l-2.04 2.04h-10.54zm2.72-2.72h9.18v-2.448h-6.46v-8.568h5.1v-2.448h-5.1V4.288h6.46V1.84h-9.18v24.48zm32.649.68l-2.04 2.04h-5.44l-.986-7.82-.714 5.78-2.04 2.04h-5.44L117.404 3.2l2.04-2.04h4.114l.918 10.064 1.122-8.024 2.04-2.04h4.08l1.394 9.724.68-7.684 2.04-2.04h4.08L136.988 27zm-9.792-.68l2.482-19.006 2.482 19.006h4.25l2.72-24.48h-2.72l-2.142 21.76-3.162-21.76h-2.856l-3.162 21.76-2.142-21.76h-2.72l2.754 24.48h4.216zm32.215 3.23c-1.677 0-3.031-.516-4.063-1.547-1.031-1.031-1.547-2.386-1.547-4.063V8.3c0-1.7.51-3.06 1.53-4.08l2.04-2.04c1.02-1.02 2.38-1.53 4.08-1.53 1.678 0 3.032.516 4.063 1.547 1.032 1.031 1.547 2.386 1.547 4.063v3.06l-2.04 2.04h-4.08V8.028c0-.748-.34-1.235-1.02-1.462V15.1l1.36-1.36h5.78v8.16c0 1.7-.51 3.06-1.53 4.08l-2.04 2.04c-1.02 1.02-2.38 1.53-4.08 1.53zm-1.53-4.08c.907.907 2.097 1.36 3.57 1.36 1.474 0 2.664-.453 3.57-1.36.907-.907 1.36-2.097 1.36-3.57v-7.48h-4.42v2.448h1.7v5.304c0 .657-.204 1.19-.612 1.598-.408.408-.94.612-1.598.612-.657 0-1.19-.204-1.598-.612-.408-.408-.612-.94-.612-1.598V5.988c0-.657.204-1.19.612-1.598.408-.408.94-.612 1.598-.612.658 0 1.19.204 1.598.612.408.408.612.94.612 1.598V8.64h2.72V6.26c0-1.473-.453-2.663-1.36-3.57-.906-.907-2.096-1.36-3.57-1.36-1.473 0-2.663.453-3.57 1.36-.906.907-1.36 2.097-1.36 3.57V21.9c0 1.473.454 2.663 1.36 3.57zm3.06-1.836v-4.046h-1.02v2.584c0 .748.34 1.235 1.02 1.462zm17.315 5.916c-1.677 0-3.032-.516-4.063-1.547-1.031-1.031-1.547-2.386-1.547-4.063V3.2l2.04-2.04h4.08v21.012c0 .748.34 1.235 1.02 1.462V3.2l2.04-2.04h4.08V21.9c0 1.7-.51 3.06-1.53 4.08l-2.04 2.04c-1.02 1.02-2.38 1.53-4.08 1.53zm-1.53-4.08c.907.907 2.097 1.36 3.57 1.36 1.473 0 2.663-.453 3.57-1.36s1.36-2.097 1.36-3.57V1.84h-2.72v20.332c0 .657-.204 1.19-.612 1.598-.408.408-.94.612-1.598.612-.657 0-1.19-.204-1.598-.612-.408-.408-.612-.94-.612-1.598V1.84h-2.72V21.9c0 1.473.453 2.663 1.36 3.57zm15.445 3.57V3.2l2.04-2.04h4.08V27l-2.04 2.04h-4.08zm2.72-2.72h2.72V1.84h-2.72v24.48zm9.835 2.72V3.2l2.04-2.04h5.61c1.677 0 3.031.516 4.063 1.547 1.031 1.031 1.547 2.386 1.547 4.063v14.62c0 1.7-.51 3.06-1.53 4.08l-2.04 2.04c-1.02 1.02-2.38 1.53-4.08 1.53h-5.61zm2.72-2.72h4.93c1.473 0 2.663-.453 3.57-1.36.906-.907 1.36-2.097 1.36-3.57V6.77c0-1.473-.454-2.663-1.36-3.57-.907-.907-2.097-1.36-3.57-1.36h-4.93v24.48zm2.72-2.448V4.288h2.21c.657 0 1.19.204 1.598.612.408.408.612.94.612 1.598v15.164c0 .657-.204 1.19-.612 1.598-.408.408-.941.612-1.598.612h-2.21zm.68-.68h1.02V8.538c0-.748-.34-1.235-1.02-1.462v16.116zm13.234 5.848V3.2l2.04-2.04h10.54v3.808l-2.04 2.04h-4.42v5.168h5.1v3.808l-2.04 2.04h-3.06v5.168h6.46V27l-2.04 2.04h-10.54zm2.72-2.72h9.18v-2.448h-6.46v-8.568h5.1v-2.448h-5.1V4.288h6.46V1.84h-9.18v24.48zM5.482 78.04V56.008H.892V52.2l2.04-2.04h13.26v3.808l-2.04 2.04h-2.55V76l-2.04 2.04h-4.08zm2.72-2.72h2.72V53.288h4.59V50.84h-11.9v2.448h4.59V75.32zm17.485 3.23c-1.678 0-3.032-.516-4.063-1.547-1.032-1.031-1.547-2.386-1.547-4.063V57.3c0-1.7.51-3.06 1.53-4.08l2.04-2.04c1.02-1.02 2.38-1.53 4.08-1.53 1.677 0 3.031.516 4.063 1.547 1.031 1.031 1.547 2.386 1.547 4.063V70.9c0 1.7-.51 3.06-1.53 4.08l-2.04 2.04c-1.02 1.02-2.38 1.53-4.08 1.53zm-1.53-4.08c.906.907 2.096 1.36 3.57 1.36 1.473 0 2.663-.453 3.57-1.36.906-.907 1.36-2.097 1.36-3.57V55.26c0-1.473-.454-2.663-1.36-3.57-.907-.907-2.097-1.36-3.57-1.36-1.474 0-2.664.453-3.57 1.36-.907.907-1.36 2.097-1.36 3.57V70.9c0 1.473.453 2.663 1.36 3.57zm5.168-1.7c-.408.408-.941.612-1.598.612-.658 0-1.19-.204-1.598-.612-.408-.408-.612-.94-.612-1.598V54.988c0-.657.204-1.19.612-1.598.408-.408.94-.612 1.598-.612.657 0 1.19.204 1.598.612.408.408.612.94.612 1.598v16.184c0 .657-.204 1.19-.612 1.598zm-2.108-.136V57.028c0-.748-.34-1.235-1.02-1.462v15.606c0 .748.34 1.235 1.02 1.462zM50.83 78.04L47.226 52.2l2.04-2.04h4.114l1.496 12.138L56.1 52.2l2.04-2.04h4.114L58.65 76l-2.04 2.04h-5.78zm2.652-2.72h4.556l3.434-24.48h-2.72L55.93 72.6h-.34l-2.822-21.76h-2.72l3.434 24.48zm13.167 2.72V52.2l2.04-2.04h10.54v3.808l-2.04 2.04h-4.42v5.168h5.1v3.808l-2.04 2.04h-3.06v5.168h6.46V76l-2.04 2.04H66.65zm2.72-2.72h9.18v-2.448h-6.46v-8.568h5.1v-2.448h-5.1v-8.568h6.46V50.84h-9.18v24.48zm20.375 3.23c-1.677 0-3.032-.516-4.063-1.547-1.031-1.031-1.547-2.386-1.547-4.063V57.3c0-1.7.51-3.06 1.53-4.08l2.04-2.04c1.02-1.02 2.38-1.53 4.08-1.53 1.677 0 3.032.516 4.063 1.547 1.031 1.031 1.547 2.386 1.547 4.063v3.06l-2.04 2.04h-4.08v-3.332c0-.748-.34-1.235-1.02-1.462V64.1l1.36-1.36h5.78v8.16c0 1.7-.51 3.06-1.53 4.08l-2.04 2.04c-1.02 1.02-2.38 1.53-4.08 1.53zm-1.53-4.08c.907.907 2.097 1.36 3.57 1.36 1.473 0 2.663-.453 3.57-1.36s1.36-2.097 1.36-3.57v-7.48h-4.42v2.448h1.7v5.304c0 .657-.204 1.19-.612 1.598-.408.408-.94.612-1.598.612-.657 0-1.19-.204-1.598-.612-.408-.408-.612-.94-.612-1.598V54.988c0-.657.204-1.19.612-1.598.408-.408.94-.612 1.598-.612.657 0 1.19.204 1.598.612.408.408.612.94.612 1.598v2.652h2.72v-2.38c0-1.473-.453-2.663-1.36-3.57s-2.097-1.36-3.57-1.36c-1.473 0-2.663.453-3.57 1.36s-1.36 2.097-1.36 3.57V70.9c0 1.473.453 2.663 1.36 3.57zm3.06-1.836v-4.046h-1.02v2.584c0 .748.34 1.235 1.02 1.462zm9.495 5.406l3.604-25.84 2.04-2.04h5.78L115.797 76l-2.04 2.04h-4.114l-.68-5.814h-1.598L106.923 76l-2.04 2.04h-4.114zm2.822-2.72h2.72l.748-5.814h4.488l.748 5.814h2.72l-3.434-24.48h-4.556l-3.434 24.48zm3.774-8.262l1.768-13.77h.34l1.768 13.77h-3.876zm.714-.68h.102l-.034-.578-.068.578zm12.113 11.662V52.2l2.04-2.04h3.366l2.414 6.868V52.2l2.04-2.04h4.08V76l-2.04 2.04h-3.4l-2.38-6.766V76l-2.04 2.04h-4.08zm2.72-2.72h2.72V59.646l5.576 15.674h2.244V50.84h-2.72v15.742l-5.61-15.742h-2.21v24.48zm27.49 2.72V52.2l2.04-2.04h10.54v3.808l-2.04 2.04h-4.42v5.168h5.1v3.808l-2.04 2.04h-3.06v5.168h6.46V76l-2.04 2.04h-10.54zm2.72-2.72h9.18v-2.448h-6.46v-8.568h5.1v-2.448h-5.1v-8.568h6.46V50.84h-9.18v24.48zm13.064 2.72l3.604-25.84 2.04-2.04h5.78L181.214 76l-2.04 2.04h-4.114l-.68-5.814h-1.598L172.34 76l-2.04 2.04h-4.114zm2.822-2.72h2.72l.748-5.814h4.488l.748 5.814h2.72l-3.434-24.48h-4.556l-3.434 24.48zm3.774-8.262l1.768-13.77h.34l1.768 13.77h-3.876zm.714-.68h.102l-.034-.578-.068.578zm14.323 11.662V56.008h-4.59V52.2l2.04-2.04h13.26v3.808l-2.04 2.04h-2.55V76l-2.04 2.04h-4.08zm2.72-2.72h2.72V53.288h4.59V50.84h-11.9v2.448h4.59V75.32zm12.555 2.72V52.2l2.04-2.04h4.08V76l-2.04 2.04h-4.08zm2.72-2.72h2.72V50.84h-2.72v24.48zm9.834 2.72V52.2l2.04-2.04h3.366l2.414 6.868V52.2l2.04-2.04h4.08V76l-2.04 2.04h-3.4l-2.38-6.766V76l-2.04 2.04h-4.08zm2.72-2.72h2.72V59.646l5.576 15.674h2.244V50.84h-2.72v15.742l-5.61-15.742h-2.21v24.48zm22.925 3.23c-1.677 0-3.031-.516-4.063-1.547-1.031-1.031-1.547-2.386-1.547-4.063V57.3c0-1.7.51-3.06 1.53-4.08l2.04-2.04c1.02-1.02 2.38-1.53 4.08-1.53 1.678 0 3.032.516 4.063 1.547 1.032 1.031 1.547 2.386 1.547 4.063v3.06l-2.04 2.04h-4.08v-3.332c0-.748-.34-1.235-1.02-1.462V64.1l1.36-1.36h5.78v8.16c0 1.7-.51 3.06-1.53 4.08l-2.04 2.04c-1.02 1.02-2.38 1.53-4.08 1.53zm-1.53-4.08c.907.907 2.097 1.36 3.57 1.36 1.474 0 2.664-.453 3.57-1.36.907-.907 1.36-2.097 1.36-3.57v-7.48h-4.42v2.448h1.7v5.304c0 .657-.204 1.19-.612 1.598-.408.408-.94.612-1.598.612-.657 0-1.19-.204-1.598-.612-.408-.408-.612-.94-.612-1.598V54.988c0-.657.204-1.19.612-1.598.408-.408.941-.612 1.598-.612.658 0 1.19.204 1.598.612.408.408.612.94.612 1.598v2.652h2.72v-2.38c0-1.473-.453-2.663-1.36-3.57-.906-.907-2.096-1.36-3.57-1.36-1.473 0-2.663.453-3.57 1.36-.906.907-1.36 2.097-1.36 3.57V70.9c0 1.473.454 2.663 1.36 3.57zm3.06-1.836v-4.046h-1.02v2.584c0 .748.34 1.235 1.02 1.462z" fill="#000" fill-rule="evenodd"/></svg>