<svg width="161" height="42" viewBox="0 0 161 42" fill="none" 
    xmlns="http://www.w3.org/2000/svg">
    <path d="M6.67575 1.27146H0.723754L9.93975 22.5355H14.7398L23.9558 1.27146H18.0038L12.3398 14.6635L6.67575 1.27146ZM44.2223 13.9435C44.2703 13.1275 44.2703 12.7435 44.2703 12.4075C44.2703 10.7755 44.0783 9.52746 43.6943 8.18346C42.3023 3.57546 38.3663 0.55146 33.7103 0.55146C27.7103 0.55146 22.9583 5.54346 22.9583 11.8795C22.9583 18.3115 27.7103 23.2555 33.9023 23.2555C36.5423 23.2555 39.0383 22.3915 41.0063 20.8555C42.3503 19.7515 42.7823 19.2715 44.1263 16.9675L39.5183 15.0475C38.9903 15.8155 38.6543 16.3435 38.4143 16.5355C37.3103 17.6875 35.6783 18.3115 33.9023 18.3115C31.2143 18.3115 29.3423 16.7755 28.5743 13.9435H44.2223ZM28.5743 9.86346C29.2943 7.03146 31.1183 5.39946 33.7103 5.39946C36.2063 5.39946 37.8383 6.83946 38.7983 9.86346H28.5743ZM62.5661 22.9675C62.5661 27.0955 60.3581 29.4955 56.5181 29.4955C53.9261 29.4955 52.5341 28.7755 50.4701 26.3755L49.6061 25.4155L46.0541 28.9675C47.7821 30.9835 48.0221 31.2235 48.8381 31.8475C50.9501 33.5275 53.6861 34.4395 56.5661 34.4395C63.4301 34.4395 68.0381 29.8315 68.0381 22.9675V1.27146H62.5661V2.61546C60.3581 1.03146 58.9661 0.55146 56.7581 0.55146C50.6141 0.55146 45.6701 5.59146 45.6701 11.8795C45.6701 18.1675 50.6141 23.2555 56.7581 23.2555C58.9661 23.2555 60.3581 22.7755 62.5661 21.1915V22.9675ZM56.8541 5.49546C60.3101 5.49546 62.6141 8.03946 62.6141 11.8795C62.6141 15.6715 60.3101 18.3115 56.9501 18.3115C53.5421 18.3115 51.1901 15.6715 51.1901 11.8795C51.1901 8.13546 53.5421 5.49546 56.8541 5.49546ZM82.1978 0.55146C75.7178 0.55146 70.7258 5.44746 70.7258 11.7835C70.7258 18.2635 75.6218 23.2555 82.0538 23.2555C88.3898 23.2555 93.3338 18.2635 93.3338 11.8795C93.3338 5.59146 88.3898 0.55146 82.1978 0.55146ZM81.9098 5.49546C85.4618 5.49546 87.8138 8.03946 87.8138 11.8795C87.8138 15.6715 85.4618 18.3115 82.0538 18.3115C78.5978 18.3115 76.2458 15.6715 76.2458 11.8795C76.2458 8.13546 78.5978 5.49546 81.9098 5.49546ZM111.693 22.9675C111.693 27.0955 109.485 29.4955 105.645 29.4955C103.053 29.4955 101.661 28.7755 99.597 26.3755L98.733 25.4155L95.181 28.9675C96.909 30.9835 97.149 31.2235 97.965 31.8475C100.077 33.5275 102.813 34.4395 105.693 34.4395C112.557 34.4395 117.165 29.8315 117.165 22.9675V1.27146H111.693V2.61546C109.485 1.03146 108.093 0.55146 105.885 0.55146C99.741 0.55146 94.797 5.59146 94.797 11.8795C94.797 18.1675 99.741 23.2555 105.885 23.2555C108.093 23.2555 109.485 22.7755 111.693 21.1915V22.9675ZM105.981 5.49546C109.437 5.49546 111.741 8.03946 111.741 11.8795C111.741 15.6715 109.437 18.3115 106.077 18.3115C102.669 18.3115 100.317 15.6715 100.317 11.8795C100.317 8.13546 102.669 5.49546 105.981 5.49546ZM131.325 0.55146C124.845 0.55146 119.853 5.44746 119.853 11.7835C119.853 18.2635 124.749 23.2555 131.181 23.2555C137.517 23.2555 142.461 18.2635 142.461 11.8795C142.461 5.59146 137.517 0.55146 131.325 0.55146ZM131.037 5.49546C134.589 5.49546 136.941 8.03946 136.941 11.8795C136.941 15.6715 134.589 18.3115 131.181 18.3115C127.725 18.3115 125.373 15.6715 125.373 11.8795C125.373 8.13546 127.725 5.49546 131.037 5.49546Z" fill="black"/>
    <path d="M127.552 32.7355V31.3855C127.552 29.9005 126.562 28.9105 125.077 28.9105C124.327 28.9105 123.712 29.1505 123.277 29.5855L122.377 30.4855C121.942 30.9205 121.702 31.5355 121.702 32.2855V33.1855C121.702 35.0905 123.172 35.9605 124.102 36.9355H122.602L121.702 37.8355V39.1855C121.702 40.6705 122.692 41.6605 124.177 41.6605C124.927 41.6605 125.542 41.4205 125.977 40.9855L126.877 40.0855C127.312 39.6505 127.552 39.0355 127.552 38.2855V37.3855C127.552 35.4805 126.082 34.6105 125.152 33.6355H126.652L127.552 32.7355ZM125.077 30.2905C124.492 30.2905 124.102 30.6805 124.102 31.2655V32.1355C124.102 34.2205 127.252 34.7455 127.252 37.4005V38.2855C127.252 39.5905 126.382 40.4605 125.077 40.4605C123.772 40.4605 122.902 39.5905 122.902 38.2855V37.2355H124.102V38.4055C124.102 38.9905 124.492 39.3805 125.077 39.3805C125.662 39.3805 126.052 38.9905 126.052 38.4055V37.5355C126.052 35.4505 122.902 34.9255 122.902 32.2705V31.3855C122.902 30.0805 123.772 29.2105 125.077 29.2105C126.382 29.2105 127.252 30.0805 127.252 31.3855V32.4355H126.052V31.2655C126.052 30.6805 125.662 30.2905 125.077 30.2905ZM124.852 32.1655V33.3055C124.582 32.9605 124.402 32.5855 124.402 32.1355V31.5205C124.672 31.6105 124.852 31.8355 124.852 32.1655ZM124.402 38.4055V37.2655C124.672 37.6105 124.852 37.9855 124.852 38.4355V39.0505C124.582 38.9605 124.402 38.7355 124.402 38.4055ZM131.074 41.4355H132.874L133.774 40.5355V31.7155H134.899L135.799 30.8155V29.1355H129.949L129.049 30.0355V31.7155H131.074V41.4355ZM132.274 40.2355V30.5155H130.249V29.4355H135.499V30.5155H133.474V40.2355H132.274ZM137.674 41.4355H139.474L140.374 40.5355V36.5755H140.824V41.4355H142.624L143.524 40.5355V29.1355H141.724L140.824 30.0355V33.9955H140.374V29.1355H138.574L137.674 30.0355V41.4355ZM138.874 40.2355V29.4355H140.074V34.2955H142.024V29.4355H143.224V40.2355H142.024V35.3755H140.074V40.2355H138.874ZM146.222 41.4355H150.572L151.472 40.5355V38.8555H148.922V29.1355H147.122L146.222 30.0355V41.4355ZM147.422 40.2355V29.4355H148.622V39.1555H151.172V40.2355H147.422ZM153.276 41.4355H155.076L155.976 40.5355V38.4505L156.171 39.0055H156.651L157.551 38.1055L157.746 37.5505V41.4355H159.546L160.446 40.5355V29.1355H158.961L158.061 30.0355L157.026 32.9905L155.661 29.1355H154.176L153.276 30.0355V41.4355ZM154.476 40.2355V29.4355H155.451L157.311 34.6555L159.171 29.4355H160.146V40.2355H158.946V33.3205L157.356 37.8055H157.266L155.676 33.3205V40.2355H154.476Z" fill="black"/>
</svg>
